<svg width="13" height="12" viewBox="0 0 13 12" fill="none" xmlns="http://www.w3.org/2000/svg">
<path d="M12.5038 8.54329H4.52831L4.92876 7.72766L11.5823 7.71561C11.8073 7.71561 12.0002 7.55489 12.0404 7.33257L12.9618 2.17498C12.9859 2.03971 12.9497 1.90043 12.8613 1.79463C12.8177 1.74255 12.7632 1.70061 12.7017 1.6717C12.6401 1.64279 12.5731 1.62761 12.5051 1.62721L4.04081 1.59909L3.96849 1.25891C3.92296 1.04195 3.72742 0.883911 3.5051 0.883911H1.4359C1.31052 0.883911 1.19027 0.93372 1.10161 1.02238C1.01294 1.11104 0.963135 1.23129 0.963135 1.35668C0.963135 1.48206 1.01294 1.60232 1.10161 1.69098C1.19027 1.77964 1.31052 1.82945 1.4359 1.82945H3.12206L3.43813 3.33213L4.21626 7.09954L3.21447 8.7348C3.16245 8.80502 3.13111 8.88839 3.12401 8.9755C3.11691 9.0626 3.13433 9.14995 3.1743 9.22766C3.25465 9.38704 3.41671 9.48748 3.59617 9.48748H4.43724C4.25794 9.72564 4.16109 10.0157 4.16135 10.3138C4.16135 11.0719 4.77742 11.6879 5.53546 11.6879C6.29349 11.6879 6.90956 11.0719 6.90956 10.3138C6.90956 10.0152 6.81046 9.72454 6.63367 9.48748H8.79126C8.61195 9.72564 8.5151 10.0157 8.51537 10.3138C8.51537 11.0719 9.13144 11.6879 9.88947 11.6879C10.6475 11.6879 11.2636 11.0719 11.2636 10.3138C11.2636 10.0152 11.1645 9.72454 10.9877 9.48748H12.5051C12.7649 9.48748 12.9779 9.27587 12.9779 9.01471C12.9771 8.88946 12.9268 8.7696 12.838 8.68128C12.7492 8.59296 12.629 8.54335 12.5038 8.54329ZM4.23769 2.53123L11.9493 2.55668L11.1939 6.78614L5.13635 6.79686L4.23769 2.53123ZM5.53546 10.737C5.30242 10.737 5.11224 10.5469 5.11224 10.3138C5.11224 10.0808 5.30242 9.89061 5.53546 9.89061C5.76849 9.89061 5.95867 10.0808 5.95867 10.3138C5.95867 10.4261 5.91408 10.5337 5.83471 10.6131C5.75535 10.6924 5.6477 10.737 5.53546 10.737ZM9.88947 10.737C9.65644 10.737 9.46626 10.5469 9.46626 10.3138C9.46626 10.0808 9.65644 9.89061 9.88947 9.89061C10.1225 9.89061 10.3127 10.0808 10.3127 10.3138C10.3127 10.4261 10.2681 10.5337 10.1887 10.6131C10.1094 10.6924 10.0017 10.737 9.88947 10.737Z" fill="#171717"/>
</svg>
